<mxfile host="app.diagrams.net" agent="Mozilla/5.0 (Windows NT 10.0; Win64; x64) AppleWebKit/537.36 (KHTML, like Gecko) Chrome/131.0.0.0 Safari/537.36" version="24.8.9">
  <diagram name="P치gina-1" id="kw3tndsgm_ZQy1xvwOks">
    <mxGraphModel dx="1434" dy="822" grid="0" gridSize="10" guides="1" tooltips="1" connect="1" arrows="1" fold="1" page="1" pageScale="1" pageWidth="2339" pageHeight="3300" math="0" shadow="0">
      <root>
        <mxCell id="0" />
        <mxCell id="1" parent="0" />
        <mxCell id="I31WJzTZPaISF9oUoprc-2" value="Web" style="shape=rect;html=1;verticalAlign=top;fontStyle=1;whiteSpace=wrap;align=center;" vertex="1" parent="1">
          <mxGeometry x="495" y="104" width="435" height="426" as="geometry" />
        </mxCell>
        <mxCell id="I31WJzTZPaISF9oUoprc-11" style="edgeStyle=none;curved=1;rounded=0;orthogonalLoop=1;jettySize=auto;html=1;exitX=0.5;exitY=0.5;exitDx=0;exitDy=0;exitPerimeter=0;entryX=0;entryY=0.5;entryDx=0;entryDy=0;fontSize=12;startSize=8;endSize=8;endArrow=none;endFill=0;" edge="1" parent="1" source="I31WJzTZPaISF9oUoprc-1" target="I31WJzTZPaISF9oUoprc-3">
          <mxGeometry relative="1" as="geometry" />
        </mxCell>
        <mxCell id="I31WJzTZPaISF9oUoprc-14" style="edgeStyle=none;curved=1;rounded=0;orthogonalLoop=1;jettySize=auto;html=1;exitX=0.5;exitY=0.5;exitDx=0;exitDy=0;exitPerimeter=0;entryX=0;entryY=0.5;entryDx=0;entryDy=0;fontSize=12;startSize=8;endSize=8;endArrow=none;endFill=0;" edge="1" parent="1" source="I31WJzTZPaISF9oUoprc-1" target="I31WJzTZPaISF9oUoprc-4">
          <mxGeometry relative="1" as="geometry" />
        </mxCell>
        <mxCell id="I31WJzTZPaISF9oUoprc-17" style="edgeStyle=none;curved=1;rounded=0;orthogonalLoop=1;jettySize=auto;html=1;exitX=0.5;exitY=0.5;exitDx=0;exitDy=0;exitPerimeter=0;entryX=0;entryY=0.5;entryDx=0;entryDy=0;fontSize=12;startSize=8;endSize=8;endArrow=none;endFill=0;" edge="1" parent="1" source="I31WJzTZPaISF9oUoprc-1" target="I31WJzTZPaISF9oUoprc-8">
          <mxGeometry relative="1" as="geometry" />
        </mxCell>
        <mxCell id="I31WJzTZPaISF9oUoprc-18" style="edgeStyle=none;curved=1;rounded=0;orthogonalLoop=1;jettySize=auto;html=1;exitX=0.5;exitY=0.5;exitDx=0;exitDy=0;exitPerimeter=0;entryX=0;entryY=0.5;entryDx=0;entryDy=0;fontSize=12;startSize=8;endSize=8;endArrow=none;endFill=0;" edge="1" parent="1" source="I31WJzTZPaISF9oUoprc-1" target="I31WJzTZPaISF9oUoprc-7">
          <mxGeometry relative="1" as="geometry" />
        </mxCell>
        <mxCell id="I31WJzTZPaISF9oUoprc-19" style="edgeStyle=none;curved=1;rounded=0;orthogonalLoop=1;jettySize=auto;html=1;exitX=0.5;exitY=0.5;exitDx=0;exitDy=0;exitPerimeter=0;entryX=0;entryY=0.5;entryDx=0;entryDy=0;fontSize=12;startSize=8;endSize=8;endArrow=none;endFill=0;" edge="1" parent="1" source="I31WJzTZPaISF9oUoprc-1" target="I31WJzTZPaISF9oUoprc-10">
          <mxGeometry relative="1" as="geometry" />
        </mxCell>
        <mxCell id="I31WJzTZPaISF9oUoprc-1" value="Cliente" style="shape=umlActor;html=1;verticalLabelPosition=bottom;verticalAlign=top;align=center;" vertex="1" parent="1">
          <mxGeometry x="376" y="274" width="30" height="60" as="geometry" />
        </mxCell>
        <mxCell id="I31WJzTZPaISF9oUoprc-3" value="Registrarse&lt;div&gt;CU-001&lt;/div&gt;" style="shape=ellipse;html=1;strokeWidth=3;fontStyle=1;whiteSpace=wrap;align=center;perimeter=ellipsePerimeter;" vertex="1" parent="1">
          <mxGeometry x="520" y="147" width="120" height="60" as="geometry" />
        </mxCell>
        <mxCell id="I31WJzTZPaISF9oUoprc-4" value="Iniciar Sesi칩n&lt;div&gt;CU-002&lt;/div&gt;" style="shape=ellipse;html=1;strokeWidth=3;fontStyle=1;whiteSpace=wrap;align=center;perimeter=ellipsePerimeter;" vertex="1" parent="1">
          <mxGeometry x="781" y="155" width="120" height="60" as="geometry" />
        </mxCell>
        <mxCell id="I31WJzTZPaISF9oUoprc-5" value="Ver pedidos&lt;div&gt;CU-004&lt;/div&gt;" style="shape=ellipse;html=1;strokeWidth=3;fontStyle=1;whiteSpace=wrap;align=center;perimeter=ellipsePerimeter;" vertex="1" parent="1">
          <mxGeometry x="518" y="240" width="120" height="60" as="geometry" />
        </mxCell>
        <mxCell id="I31WJzTZPaISF9oUoprc-6" value="Editar Perfil&lt;div&gt;CU-003&lt;/div&gt;" style="shape=ellipse;html=1;strokeWidth=3;fontStyle=1;whiteSpace=wrap;align=center;perimeter=ellipsePerimeter;" vertex="1" parent="1">
          <mxGeometry x="668" y="207" width="120" height="60" as="geometry" />
        </mxCell>
        <mxCell id="I31WJzTZPaISF9oUoprc-7" value="Ver Ofertas vigentes&lt;div&gt;CU-005&lt;/div&gt;" style="shape=ellipse;html=1;strokeWidth=3;fontStyle=1;whiteSpace=wrap;align=center;perimeter=ellipsePerimeter;" vertex="1" parent="1">
          <mxGeometry x="581" y="308" width="143" height="64" as="geometry" />
        </mxCell>
        <mxCell id="I31WJzTZPaISF9oUoprc-8" value="Hacer pedido&lt;div&gt;CU-006&lt;/div&gt;" style="shape=ellipse;html=1;strokeWidth=3;fontStyle=1;whiteSpace=wrap;align=center;perimeter=ellipsePerimeter;" vertex="1" parent="1">
          <mxGeometry x="786" y="291" width="120" height="60" as="geometry" />
        </mxCell>
        <mxCell id="I31WJzTZPaISF9oUoprc-9" value="Dise침ar cocina&lt;div&gt;CU-007&lt;/div&gt;" style="shape=ellipse;html=1;strokeWidth=3;fontStyle=1;whiteSpace=wrap;align=center;perimeter=ellipsePerimeter;" vertex="1" parent="1">
          <mxGeometry x="523" y="403" width="120" height="60" as="geometry" />
        </mxCell>
        <mxCell id="I31WJzTZPaISF9oUoprc-10" value="Dise침ar armario&lt;div&gt;CU-008&lt;/div&gt;" style="shape=ellipse;html=1;strokeWidth=3;fontStyle=1;whiteSpace=wrap;align=center;perimeter=ellipsePerimeter;" vertex="1" parent="1">
          <mxGeometry x="685" y="392" width="120" height="60" as="geometry" />
        </mxCell>
        <mxCell id="I31WJzTZPaISF9oUoprc-15" style="edgeStyle=none;curved=1;rounded=0;orthogonalLoop=1;jettySize=auto;html=1;exitX=0.5;exitY=0.5;exitDx=0;exitDy=0;exitPerimeter=0;entryX=0.033;entryY=0.617;entryDx=0;entryDy=0;entryPerimeter=0;fontSize=12;startSize=8;endSize=8;endArrow=none;endFill=0;" edge="1" parent="1" source="I31WJzTZPaISF9oUoprc-1" target="I31WJzTZPaISF9oUoprc-6">
          <mxGeometry relative="1" as="geometry" />
        </mxCell>
        <mxCell id="I31WJzTZPaISF9oUoprc-16" style="edgeStyle=none;curved=1;rounded=0;orthogonalLoop=1;jettySize=auto;html=1;exitX=0.5;exitY=0.5;exitDx=0;exitDy=0;exitPerimeter=0;entryX=0.067;entryY=0.75;entryDx=0;entryDy=0;entryPerimeter=0;fontSize=12;startSize=8;endSize=8;endArrow=none;endFill=0;" edge="1" parent="1" source="I31WJzTZPaISF9oUoprc-1" target="I31WJzTZPaISF9oUoprc-5">
          <mxGeometry relative="1" as="geometry" />
        </mxCell>
        <mxCell id="I31WJzTZPaISF9oUoprc-20" style="edgeStyle=none;curved=1;rounded=0;orthogonalLoop=1;jettySize=auto;html=1;exitX=0.5;exitY=0.5;exitDx=0;exitDy=0;exitPerimeter=0;entryX=0.017;entryY=0.383;entryDx=0;entryDy=0;entryPerimeter=0;fontSize=12;startSize=8;endSize=8;endArrow=none;endFill=0;" edge="1" parent="1" source="I31WJzTZPaISF9oUoprc-1" target="I31WJzTZPaISF9oUoprc-9">
          <mxGeometry relative="1" as="geometry" />
        </mxCell>
      </root>
    </mxGraphModel>
  </diagram>
</mxfile>
